<?xml version="1.0" encoding="UTF-8" standalone="no"?>
<svg width="18px" height="18px" viewBox="0 0 18 18" version="1.1" xmlns="http://www.w3.org/2000/svg" xmlns:xlink="http://www.w3.org/1999/xlink">
    <!-- Generator: Sketch 41 (35326) - http://www.bohemiancoding.com/sketch -->
    <title>email</title>
    <desc>Created with Sketch.</desc>
    <defs></defs>
    <g id="All" stroke="none" stroke-width="1" fill="none" fill-rule="evenodd">
        <g id="email" fill="#000000">
            <path d="M9,18 C13.9705627,18 18,13.9705627 18,9 C18,4.02943725 13.9705627,0 9,0 C4.02943725,0 0,4.02943725 0,9 C0,13.9705627 4.02943725,18 9,18 Z M14.6842173,7.41400187 C14.4938976,7.62335362 14.2782018,7.80732941 14.0498181,7.96592922 C12.9903713,8.68280037 11.9245806,9.40601552 10.8905098,10.1546067 C10.3576144,10.5479342 9.69783916,11.0300776 9.006344,11.0300776 L9,11.0300776 L8.993656,11.0300776 C8.30216082,11.0300776 7.6423856,10.5479342 7.10949023,10.1546067 C6.07541945,9.39967153 5.0096287,8.68280037 3.95652594,7.96592922 C3.72179822,7.80732941 3.50610247,7.62335362 3.3157827,7.41400187 L3.3157827,12.4511319 C3.3157827,13.0094033 3.77255016,13.4661707 4.33082151,13.4661707 L13.6691785,13.4661707 C14.2274498,13.4661707 14.6842173,13.0094033 14.6842173,12.4511319 L14.6842173,7.41400187 Z M14.6842173,5.54886806 C14.6842173,4.99059673 14.2211059,4.53382927 13.6691785,4.53382927 L4.33082151,4.53382927 C3.6520143,4.53382927 3.3157827,5.06672464 3.3157827,5.6884359 C3.3157827,6.26573923 3.95652594,6.98261038 4.40694941,7.28712202 C5.39026825,7.97227321 6.38627508,8.65742441 7.36959393,9.34891959 C7.78195343,9.63439929 8.47979261,10.2180465 8.993656,10.2180465 L9,10.2180465 L9.006344,10.2180465 C9.52020739,10.2180465 10.2180465,9.63439929 10.6304061,9.34891959 C11.613725,8.65742441 12.6097317,7.97227321 13.5993946,7.28712202 C14.1576659,6.90013847 14.6842173,6.25939523 14.6842173,5.54886806 Z" id="Oval-1"></path>
        </g>
    </g>
</svg>